<svg width="442" height="261" viewBox="0 0 442 261" fill="none" xmlns="http://www.w3.org/2000/svg">
<path fill-rule="evenodd" clip-rule="evenodd" d="M49.8839 0.918128C48.9918 1.35961 46.7324 1.75018 44.863 1.78628C42.9937 1.82145 41.2387 2.26755 40.9629 2.7766C40.6872 3.28564 39.5656 3.70213 38.4708 3.70213C37.3759 3.70213 35.8464 4.07512 35.0719 4.53048C34.2974 4.98584 31.201 6.71381 28.1898 8.37143C25.1785 10.0281 22.7156 11.7376 22.7156 12.1707C22.7156 12.603 22.2476 12.9574 21.6767 12.9574C20.4723 12.9574 12.3129 22.4988 10.5952 25.9149C6.50782 34.0438 4.70011 39.3851 2.45122 49.9787C0.135016 60.8833 -0.833312 94.1562 0.846259 105.125C3.05054 119.528 3.79261 122.43 7.57265 131.426C10.8199 139.152 19.6954 149.497 26.1023 153.025C36.1846 158.574 34.8051 158.45 91.4474 158.92C130.251 159.243 143.564 159.628 143.594 160.429C143.946 170.043 143.246 188.576 142.393 192.268C140.944 198.54 138.095 204.901 135.516 207.625C131.023 212.373 131.548 212.33 73.8083 212.606L19.8771 212.863L17.1756 220.503C11.407 236.822 7.47858 246.996 1.7789 260.377C1.44396 261.163 113.792 260.442 130.578 259.552C154.382 258.288 168.492 251.299 178.747 235.691C184.151 227.467 187.558 217.129 189.927 201.766C191.483 191.673 191.484 49.565 189.928 43.5C189.34 41.2093 188.493 37.8774 188.046 36.0957C184.831 23.2929 176.226 11.844 165.856 6.57405C164.518 5.89379 162.79 4.96918 162.015 4.51937C161.241 4.06956 159.762 3.70213 158.731 3.70213C157.698 3.70213 156.508 3.32636 156.084 2.86637C155.66 2.40638 153.489 1.73074 151.258 1.36331C145.311 0.385021 51.7905 -0.0259143 49.8839 0.918128ZM214.767 0.694149C214.629 1.07639 214.621 59.8014 214.748 131.194L214.98 261H238.469H261.959V175.796C261.959 122.559 262.246 90.7956 262.726 91.1334C263.146 91.4305 264.833 94.6828 266.474 98.3609C270.295 106.927 285.587 139.306 289.521 147.16C291.178 150.468 293.811 155.883 295.371 159.191C296.93 162.5 299.175 167.186 300.358 169.604C302.519 174.021 304.739 178.577 308.702 186.726C309.877 189.144 312.066 193.54 313.568 196.494C315.068 199.448 316.296 202.019 316.296 202.206C316.296 202.393 318.044 206.014 320.179 210.254C322.314 214.494 324.72 219.563 325.524 221.52C327.296 225.83 326.706 226.527 334.224 211.253C335.164 209.344 336.206 207.365 336.541 206.856C337.178 205.885 340.546 198.941 345.295 188.809C346.844 185.5 348.932 181.127 349.932 179.09C351.621 175.651 352.521 173.845 356.846 165.207C359.433 160.04 361.74 155.31 363.617 151.324C364.576 149.288 365.543 147.414 365.767 147.16C365.99 146.905 366.937 145.031 367.872 142.995C368.807 140.959 370.414 137.627 371.443 135.59C372.473 133.554 374.583 129.181 376.131 125.872C377.679 122.564 379.517 118.815 380.214 117.543C380.91 116.27 383.29 111.272 385.5 106.436C387.711 101.6 390.198 96.5385 391.025 95.1873C391.852 93.836 392.529 92.1099 392.529 91.3528C392.529 90.269 394.087 88.8511 395.278 88.8511C395.378 88.8511 395.439 110.197 395.414 136.285C395.389 162.373 395.459 201.107 395.571 222.359L395.773 261H418.887H442V130.5V0H412.573H383.147L371.415 26.609C364.963 41.2445 359.41 53.3569 359.076 53.5263C358.741 53.6966 358.468 54.3204 358.468 54.9137C358.468 55.5069 353.68 67.0298 347.829 80.5203C341.978 94.01 335.486 109.005 333.405 113.84C331.193 118.977 329.126 122.633 328.432 122.633C327.671 122.633 317.636 100.638 300.481 61.3628L273.719 0.0934803L244.368 0.0462759C228.225 0.0212865 214.904 0.311904 214.767 0.694149ZM133.904 54.7378C141.322 57.5801 143.58 65.2232 143.508 87.2443C143.457 103.1 142.641 107.397 139.499 108.389C136.059 109.474 67.0324 109.321 62.5273 108.219C53.4725 106.002 50.2894 98.6774 50.2894 80.0585C50.2894 65.6073 51.8879 59.6579 56.8155 55.7633L59.4504 53.6809H95.2988C120.011 53.6809 132.003 54.0094 133.904 54.7378Z" fill="url(#paint0_linear_7_1764)"/>
<defs>
<linearGradient id="paint0_linear_7_1764" x1="221" y1="0" x2="221" y2="261" gradientUnits="userSpaceOnUse">
<stop stop-color="#A8A8A6"/>
<stop offset="0.45" stop-color="#F9F8F6"/>
<stop offset="0.67" stop-color="#E7E6E5"/>
<stop offset="0.745" stop-color="#DDDDDD"/>
<stop offset="1" stop-color="#7F7F7F"/>
</linearGradient>
</defs>
</svg>
